<svg width="18" height="12" viewBox="0 0 18 12" fill="none" xmlns="http://www.w3.org/2000/svg">
<path d="M2.6665 7.33307C3.21871 7.33307 3.66638 7.78089 3.6665 8.33307V10.3331C3.6665 10.8854 3.21879 11.3331 2.6665 11.3331H1.6665C1.11429 11.333 0.666504 10.8853 0.666504 10.3331V8.33307C0.666625 7.78094 1.11436 7.33315 1.6665 7.33307H2.6665ZM7.3335 5.33307C7.88563 5.33316 8.33338 5.78094 8.3335 6.33307V10.3331C8.3335 10.8853 7.8857 11.333 7.3335 11.3331H6.3335C5.78121 11.3331 5.3335 10.8854 5.3335 10.3331V6.33307C5.33362 5.78089 5.78129 5.33307 6.3335 5.33307H7.3335ZM11.9995 3.00006C12.5518 3.00006 12.9995 3.44778 12.9995 4.00006V10.3331C12.9995 10.8854 12.5518 11.3331 11.9995 11.3331H10.9995C10.4474 11.3328 9.99951 10.8852 9.99951 10.3331V4.00006C9.99951 3.44794 10.4474 3.00032 10.9995 3.00006H11.9995ZM16.6665 0.667053C17.2188 0.667053 17.6665 1.11477 17.6665 1.66705V10.3331C17.6665 10.8854 17.2188 11.3331 16.6665 11.3331H15.6665C15.1143 11.333 14.6665 10.8853 14.6665 10.3331V1.66705C14.6665 1.11482 15.1143 0.667136 15.6665 0.667053H16.6665Z" fill="black"/>
</svg>
