<svg width="31" height="31" viewBox="0 0 31 31" fill="none" xmlns="http://www.w3.org/2000/svg">
<path d="M21.8482 16.3542H18.7851C18.5425 16.3542 18.3398 16.4362 18.177 16.6002C18.0141 16.7642 17.9321 16.9675 17.931 17.21C17.9298 17.4526 18.0118 17.6553 18.177 17.8182C18.3421 17.9811 18.5448 18.0625 18.7851 18.0625H23.3857C23.7763 18.0625 24.1037 17.9304 24.368 17.6662C24.6322 17.4008 24.7643 17.0728 24.7643 16.6822V12.0833C24.7643 11.8408 24.6823 11.638 24.5183 11.4752C24.3543 11.3112 24.151 11.2292 23.9084 11.2292C23.6658 11.2292 23.4631 11.3112 23.3003 11.4752C23.1374 11.6392 23.056 11.8419 23.056 12.0833V15.1242C22.0139 13.5183 20.7383 12.3253 19.2293 11.5452C17.7225 10.7651 16.2801 10.375 14.9021 10.375C12.7792 10.375 10.9336 11.0088 9.36538 12.2764C7.79713 13.544 6.78124 15.1356 6.31771 17.0512C6.24824 17.3006 6.28981 17.5318 6.44242 17.7448C6.59503 17.9577 6.78864 18.0636 7.02325 18.0625C7.28861 18.0625 7.50614 17.972 7.67583 17.7909C7.84667 17.6109 7.97024 17.3883 8.04654 17.1229C8.44515 15.6799 9.27825 14.479 10.5458 13.52C11.8146 12.5622 13.2666 12.0833 14.9021 12.0833C16.0592 12.0833 17.2926 12.4552 18.6023 13.1989C19.9121 13.9426 20.994 14.9943 21.8482 16.3542ZM15.5051 30.875C13.38 30.875 11.3812 30.4718 9.50887 29.6655C7.63768 28.858 6.00964 27.7624 4.62475 26.3787C3.23986 24.9949 2.14368 23.3686 1.33621 21.4997C0.528736 19.6308 0.125 17.6326 0.125 15.5051C0.125 13.3777 0.528736 11.3789 1.33621 9.50887C2.14254 7.63768 3.23644 6.00964 4.61792 4.62475C5.99939 3.23986 7.62629 2.14368 9.49863 1.33621C11.371 0.528736 13.3697 0.125 15.4949 0.125C17.62 0.125 19.6188 0.528736 21.4911 1.33621C23.3623 2.14254 24.9904 3.23701 26.3752 4.61963C27.7601 6.00224 28.8563 7.62914 29.6638 9.50033C30.4713 11.3715 30.875 13.3697 30.875 15.4949C30.875 17.62 30.4718 19.6188 29.6655 21.4911C28.8592 23.3635 27.7636 24.9915 26.3787 26.3752C24.9938 27.759 23.3674 28.8552 21.4997 29.6638C19.6319 30.4724 17.6337 30.8761 15.5051 30.875ZM15.5 29.1667C19.3153 29.1667 22.5469 27.8427 25.1948 25.1948C27.8427 22.5469 29.1667 19.3153 29.1667 15.5C29.1667 11.6847 27.8427 8.45312 25.1948 5.80521C22.5469 3.15729 19.3153 1.83333 15.5 1.83333C11.6847 1.83333 8.45312 3.15729 5.80521 5.80521C3.15729 8.45312 1.83333 11.6847 1.83333 15.5C1.83333 19.3153 3.15729 22.5469 5.80521 25.1948C8.45312 27.8427 11.6847 29.1667 15.5 29.1667Z" fill="black"/>
</svg>
