<svg width="24" height="24" viewBox="0 0 24 24" fill="none" xmlns="http://www.w3.org/2000/svg">
<path d="M15.75 9.5L14.5175 9.295C14.4877 9.47399 14.4973 9.65732 14.5455 9.83224C14.5938 10.0072 14.6795 10.1695 14.7968 10.3079C14.9141 10.4464 15.0601 10.5577 15.2247 10.634C15.3893 10.7103 15.5686 10.7499 15.75 10.75V9.5ZM2 9.5V8.25C1.66848 8.25 1.35054 8.3817 1.11612 8.61612C0.881696 8.85054 0.75 9.16848 0.75 9.5H2ZM4.5 23.25H18.7V20.75H4.5V23.25ZM20.2 8.25H15.75V10.75H20.2V8.25ZM16.9838 9.705L17.99 3.66125L15.525 3.25L14.5175 9.295L16.9838 9.705ZM15.525 0.75H15.2575V3.25H15.525V0.75ZM11.0963 2.97625L7.95375 7.69375L10.0338 9.08125L13.1788 4.36375L11.0963 2.97625ZM6.9125 8.25H2V10.75H6.9125V8.25ZM0.75 9.5V19.5H3.25V9.5H0.75ZM22.3775 20.235L23.8775 12.735L21.4275 12.245L19.9275 19.745L22.3775 20.235ZM7.95375 7.69375C7.83956 7.8649 7.68365 8.00521 7.50223 8.10224C7.32081 8.19928 7.11824 8.25003 6.9125 8.25V10.75C7.52983 10.75 8.13761 10.5975 8.68188 10.3062C9.22615 10.0149 9.69008 9.59367 10.0325 9.08L7.95375 7.69375ZM17.99 3.66125C18.0497 3.30317 18.0307 2.93639 17.9344 2.58639C17.838 2.23639 17.6666 1.91157 17.432 1.63452C17.1974 1.35747 16.9053 1.13483 16.576 0.982082C16.2467 0.829333 15.888 0.750137 15.525 0.75V3.25L17.99 3.66125ZM20.2 10.75C20.385 10.7499 20.5676 10.7909 20.7349 10.87C20.9021 10.9491 21.0497 11.0643 21.167 11.2073C21.2843 11.3503 21.3684 11.5175 21.4132 11.697C21.4581 11.8765 21.4638 12.0636 21.4275 12.245L23.8775 12.735C23.9862 12.1911 23.9729 11.6298 23.8385 11.0916C23.7042 10.5534 23.4521 10.0518 23.1004 9.62276C22.7488 9.19376 22.3064 8.84812 21.805 8.61074C21.3037 8.37336 20.7559 8.25015 20.2013 8.25L20.2 10.75ZM18.7 23.25C19.567 23.2501 20.4073 22.9497 21.0778 22.4C21.7483 21.8503 22.2076 21.0852 22.3775 20.235L19.9275 19.745C19.8708 20.0287 19.7175 20.2839 19.4936 20.4672C19.2698 20.6505 18.9893 20.7504 18.7 20.75V23.25ZM15.2575 0.75C14.4344 0.750014 13.6241 0.953218 12.8984 1.34158C12.1727 1.72994 11.5529 2.29144 11.0963 2.97625L13.1788 4.36375C13.407 4.02123 13.715 3.74036 14.0778 3.54606C14.4407 3.35177 14.8459 3.25008 15.2575 3.25V0.75ZM4.5 20.75C4.16848 20.75 3.85054 20.6183 3.61612 20.3839C3.3817 20.1495 3.25 19.8315 3.25 19.5H0.75C0.75 20.4946 1.14509 21.4484 1.84835 22.1517C2.55161 22.8549 3.50544 23.25 4.5 23.25V20.75Z" fill="black"/>
</svg>
