<svg width="32" height="32" viewBox="0 0 32 32" fill="none" xmlns="http://www.w3.org/2000/svg">
<path d="M9.41103 15.7311L12.4519 15.3628C12.6927 15.3337 12.8841 15.2279 13.026 15.0455C13.168 14.8631 13.225 14.6514 13.1969 14.4105C13.1689 14.1695 13.0631 13.9781 12.8796 13.8363C12.6961 13.6945 12.485 13.638 12.2465 13.6669L7.67931 14.22C7.2915 14.2669 6.98233 14.4375 6.75179 14.7315C6.52138 15.0267 6.42966 15.3682 6.47662 15.756L7.0295 20.3215C7.05866 20.5623 7.16444 20.7537 7.34683 20.8957C7.52936 21.0388 7.74103 21.0958 7.98186 21.0666C8.22268 21.0374 8.41408 20.9317 8.55604 20.7493C8.698 20.5669 8.75447 20.3558 8.72544 20.1161L8.35987 17.0974C9.58745 18.5663 10.9972 19.5973 12.5891 20.1903C14.1787 20.7837 15.6575 20.9975 17.0256 20.8318C19.1331 20.5766 20.889 19.7255 22.2935 18.2786C23.698 16.8317 24.5152 15.1295 24.7451 13.172C24.784 12.9161 24.715 12.6916 24.5379 12.4985C24.3608 12.3054 24.1558 12.2235 23.923 12.2529C23.6596 12.2848 23.4545 12.4008 23.3079 12.601C23.1599 12.8002 23.064 13.0361 23.0201 13.3087C22.7979 14.7891 22.1152 16.0815 20.9721 17.1859C19.8277 18.2893 18.4438 18.9393 16.8202 19.1359C15.6715 19.275 14.4023 19.0541 13.0127 18.4733C11.623 17.8924 10.4225 16.9784 9.41103 15.7311ZM13.9624 0.553001C16.0721 0.29751 18.1048 0.45746 20.0605 1.03285C22.0152 1.60951 23.7632 2.50145 25.3044 3.70867C26.8456 4.91589 28.1293 6.39864 29.1556 8.15693C30.1819 9.91522 30.823 11.8504 31.0787 13.9624C31.3345 16.0744 31.174 18.1072 30.5972 20.0608C30.0216 22.0153 29.1314 23.7631 27.9264 25.304C26.7215 26.8449 25.2382 28.1287 23.4765 29.1554C21.7148 30.1822 19.7791 30.8233 17.6693 31.0787C15.5596 31.3342 13.5268 31.1737 11.571 30.5972C9.6164 30.0217 7.86859 29.1309 6.32752 27.9248C4.78646 26.7187 3.50264 25.2354 2.47607 23.4748C1.44949 21.7143 0.808465 19.7791 0.552975 17.6694C0.297485 15.5596 0.457434 13.5269 1.03283 11.5712C1.60822 9.6155 2.50016 7.86755 3.70864 6.32735C4.91713 4.78714 6.39989 3.50339 8.1569 2.47609C9.91392 1.4488 11.8491 0.807771 13.9624 0.553001ZM14.1728 2.24833C10.3852 2.707 7.33623 4.40987 5.02585 7.35691C2.71548 10.304 1.78962 13.6713 2.2483 17.4589C2.70698 21.2465 4.40984 24.2955 7.35689 26.6059C10.3039 28.9162 13.6713 29.8421 17.4589 29.3834C21.2465 28.9247 24.2955 27.2219 26.6058 24.2748C28.9162 21.3278 29.8421 17.9605 29.3834 14.1728C28.9247 10.3852 27.2219 7.33625 24.2748 5.02587C21.3278 2.7155 17.9604 1.78965 14.1728 2.24833Z" fill="black"/>
</svg>
