<svg width="24" height="24" viewBox="0 0 24 24" fill="none" xmlns="http://www.w3.org/2000/svg">
<path d="M15.75 14.5L14.5175 14.705C14.4877 14.526 14.4973 14.3427 14.5455 14.1678C14.5938 13.9928 14.6795 13.8305 14.7968 13.6921C14.9141 13.5536 15.0601 13.4423 15.2247 13.366C15.3893 13.2897 15.5686 13.2501 15.75 13.25V14.5ZM2 14.5V15.75C1.66848 15.75 1.35054 15.6183 1.11612 15.3839C0.881696 15.1495 0.75 14.8315 0.75 14.5H2ZM4.5 0.75H18.7V3.25H4.5V0.75ZM20.2 15.75H15.75V13.25H20.2V15.75ZM16.9838 14.295L17.99 20.3387L15.525 20.75L14.5175 14.705L16.9838 14.295ZM15.525 23.25H15.2575V20.75H15.525V23.25ZM11.0963 21.0238L7.9525 16.3062L10.0325 14.9187L13.1775 19.6362L11.0963 21.0238ZM6.9125 15.75H2V13.25H6.9125V15.75ZM0.75 14.5V4.5H3.25V14.5H0.75ZM22.3775 3.765L23.8775 11.265L21.4275 11.755L19.9275 4.255L22.3775 3.765ZM7.9525 16.3062C7.83831 16.1351 7.68365 15.9948 7.50223 15.8978C7.32081 15.8007 7.11824 15.75 6.9125 15.75V13.25C7.52983 13.25 8.13761 13.4025 8.68188 13.6938C9.22615 13.9851 9.69008 14.4063 10.0325 14.92L7.9525 16.3062ZM17.99 20.3387C18.0497 20.6968 18.0307 21.0636 17.9344 21.4136C17.838 21.7636 17.6666 22.0884 17.432 22.3655C17.1974 22.6425 16.9053 22.8652 16.576 23.0179C16.2467 23.1707 15.888 23.2499 15.525 23.25V20.75L17.99 20.3387ZM20.2 13.25C20.385 13.2501 20.5676 13.2091 20.7349 13.13C20.9021 13.0509 21.0497 12.9357 21.167 12.7927C21.2843 12.6497 21.3684 12.4825 21.4132 12.303C21.4581 12.1235 21.4638 11.9364 21.4275 11.755L23.8775 11.265C23.9862 11.8089 23.9729 12.3702 23.8385 12.9084C23.7042 13.4466 23.4521 13.9482 23.1004 14.3772C22.7488 14.8062 22.3064 15.1519 21.805 15.3893C21.3037 15.6266 20.7559 15.7499 20.2013 15.75L20.2 13.25ZM18.7 0.75C19.567 0.749946 20.4073 1.05033 21.0778 1.60003C21.7483 2.14974 22.2076 2.91479 22.3775 3.765L19.9275 4.255C19.8708 3.97132 19.7175 3.71608 19.4936 3.53282C19.2698 3.34955 18.9893 3.2496 18.7 3.25V0.75ZM15.2575 23.25C14.4344 23.25 13.6241 23.0468 12.8984 22.6584C12.1727 22.2701 11.5529 21.7086 11.0963 21.0238L13.1775 19.6362C13.4057 19.9788 13.715 20.2596 14.0778 20.4539C14.4407 20.6482 14.8459 20.7499 15.2575 20.75V23.25ZM4.5 3.25C4.16848 3.25 3.85054 3.3817 3.61612 3.61612C3.3817 3.85054 3.25 4.16848 3.25 4.5H0.75C0.75 3.50544 1.14509 2.55161 1.84835 1.84835C2.55161 1.14509 3.50544 0.75 4.5 0.75V3.25Z" fill="black"/>
</svg>
