<svg width="18" height="21" viewBox="0 0 18 21" fill="none" xmlns="http://www.w3.org/2000/svg">
<path d="M10.417 1.24527C11.2651 0.762289 12.2699 0.634552 13.212 0.889961C14.154 1.14537 14.9567 1.76317 15.4447 2.60843C15.9327 3.45369 16.0664 4.45772 15.8166 5.40124C15.5668 6.34477 14.9538 7.1511 14.1115 7.64415L13.3577 8.07807C14.1815 8.04956 14.9912 8.29748 15.6579 8.78235C16.3246 9.26722 16.8099 9.96118 17.0365 10.7537C17.2632 11.5463 17.2182 12.3919 16.9087 13.156C16.5992 13.92 16.043 14.5585 15.3287 14.9699L8.17809 19.0983C7.32982 19.5883 6.32167 19.7211 5.37542 19.4677C4.42918 19.2144 3.62235 18.5954 3.13243 17.7472C2.64251 16.8989 2.50964 15.8907 2.76303 14.9445C3.01643 13.9983 3.63534 13.1914 4.48361 12.7015L5.23636 12.2656C4.41338 12.2925 3.60499 12.0437 2.93956 11.5587C2.27412 11.0737 1.78979 10.3803 1.56345 9.58855C1.33712 8.79685 1.38175 7.95222 1.69028 7.18878C1.9988 6.42534 2.55353 5.78685 3.26638 5.37469L10.417 1.24527Z" stroke="black" stroke-width="1.5" stroke-linejoin="round"/>
</svg>
