<svg width="16" height="12" viewBox="0 0 16 12" fill="none" xmlns="http://www.w3.org/2000/svg">
<path d="M6.12061 8.73132C7.39614 7.65247 9.26398 7.65252 10.5396 8.73132C10.6037 8.78936 10.6413 8.87138 10.6431 8.95789C10.6447 9.04426 10.611 9.12784 10.5493 9.18835L8.55225 11.204C8.49376 11.2632 8.41376 11.2967 8.33057 11.2968C8.2474 11.2968 8.16741 11.263 8.10889 11.204L6.11084 9.18835C6.04924 9.12781 6.01539 9.04423 6.01709 8.95789C6.01892 8.87145 6.05649 8.7893 6.12061 8.73132ZM3.45557 6.04187C6.20373 3.48573 10.4594 3.48568 13.2075 6.04187C13.2695 6.10178 13.3052 6.18418 13.3062 6.27039C13.307 6.35659 13.2731 6.43967 13.2124 6.50085L12.0581 7.66785C11.9392 7.78689 11.7466 7.78941 11.6245 7.67371C10.7221 6.85656 9.54796 6.40416 8.33057 6.40417C7.11388 6.40468 5.94045 6.85704 5.03857 7.67371C4.9165 7.78949 4.7239 7.78691 4.60498 7.66785L3.45068 6.50085C3.38989 6.43977 3.35612 6.35657 3.35693 6.27039C3.35781 6.18418 3.39354 6.10176 3.45557 6.04187ZM0.789551 3.36023C5.00457 -0.679241 11.6545 -0.679086 15.8696 3.36023C15.9306 3.42023 15.9658 3.5022 15.9663 3.58777C15.9668 3.67335 15.9329 3.75556 15.8726 3.81628L14.7163 4.98328C14.5972 5.10267 14.4045 5.10386 14.2837 4.98621C12.6778 3.45947 10.5464 2.60844 8.33057 2.60828C6.11446 2.60827 3.98262 3.45931 2.37646 4.98621C2.2556 5.10425 2.06189 5.10317 1.94287 4.98328L0.786621 3.81628C0.726497 3.75555 0.693295 3.67324 0.693848 3.58777C0.69441 3.50226 0.728586 3.42018 0.789551 3.36023Z" fill="black"/>
</svg>
