<svg width="18" height="21" viewBox="0 0 18 21" fill="none" xmlns="http://www.w3.org/2000/svg">
<path d="M10.0628 1.2601C10.9148 0.774906 11.9242 0.646585 12.8705 0.90316C13.8169 1.15974 14.6232 1.78036 15.1134 2.62948C15.6037 3.4786 15.738 4.48722 15.4871 5.43505C15.2361 6.38287 14.6203 7.19289 13.7741 7.68819L13.0169 8.12409C13.8445 8.09546 14.6579 8.3445 15.3276 8.83159C15.9974 9.31868 16.4849 10.0158 16.7126 10.812C16.9403 11.6082 16.8951 12.4576 16.5842 13.2252C16.2733 13.9927 15.7145 14.6342 14.9969 15.0474L7.81368 19.1947C6.96153 19.6869 5.94878 19.8203 4.99821 19.5658C4.04765 19.3112 3.23714 18.6895 2.74498 17.8373C2.25283 16.9852 2.11934 15.9725 2.3739 15.0219C2.62845 14.0713 3.25018 13.2608 4.10233 12.7687L4.85852 12.3307C4.03178 12.3577 3.2197 12.1078 2.55123 11.6206C1.88275 11.1334 1.39621 10.4368 1.16884 9.64148C0.941468 8.84616 0.986311 7.99767 1.29624 7.23074C1.60618 6.46382 2.16344 5.82241 2.87954 5.40837L10.0628 1.2601Z" stroke="black" stroke-width="1.5" stroke-linejoin="round"/>
</svg>
