<svg width="25" height="25" viewBox="0 0 25 25" fill="none" xmlns="http://www.w3.org/2000/svg">
<path d="M22.8125 0.125H2.1875C1.64049 0.125 1.11589 0.342298 0.729092 0.729092C0.342298 1.11589 0.125 1.64049 0.125 2.1875V22.8125C0.125 23.3595 0.342298 23.8841 0.729092 24.2709C1.11589 24.6577 1.64049 24.875 2.1875 24.875H22.8125C23.3595 24.875 23.8841 24.6577 24.2709 24.2709C24.6577 23.8841 24.875 23.3595 24.875 22.8125V2.1875C24.875 1.64049 24.6577 1.11589 24.2709 0.729092C23.8841 0.342298 23.3595 0.125 22.8125 0.125ZM2.1875 22.8125V2.1875H22.8125V22.8125H2.1875Z" fill="black"/>
</svg>
