<svg width="25" height="25" viewBox="0 0 25 25" fill="none" xmlns="http://www.w3.org/2000/svg">
<path d="M21.5417 0.875H3.45833C2.77319 0.875 2.11611 1.14717 1.63164 1.63164C1.14717 2.11611 0.875 2.77319 0.875 3.45833V21.5417C0.875 22.2268 1.14717 22.8839 1.63164 23.3684C2.11611 23.8528 2.77319 24.125 3.45833 24.125H21.5417C22.2268 24.125 22.8839 23.8528 23.3684 23.3684C23.8528 22.8839 24.125 22.2268 24.125 21.5417V3.45833C24.125 2.77319 23.8528 2.11611 23.3684 1.63164C22.8839 1.14717 22.2268 0.875 21.5417 0.875ZM21.5417 3.45833V21.5417H3.45833V3.45833H21.5417ZM9.91667 18.9583L4.75 13.7917L6.57125 11.9575L9.91667 15.3029L18.4287 6.79083L20.25 8.625" fill="black"/>
</svg>
