<svg width="30" height="12" viewBox="0 0 30 12" fill="none" xmlns="http://www.w3.org/2000/svg">
<path d="M4.65234 11.2563C7.34033 11.2563 8.93701 9.1543 8.93701 5.59473C8.93701 4.25439 8.68066 3.12646 8.18994 2.25488C7.47949 0.899902 6.25635 0.16748 4.71094 0.16748C2.41113 0.16748 0.785156 1.71289 0.785156 3.88086C0.785156 5.91699 2.25 7.39648 4.26416 7.39648C5.50195 7.39648 6.50537 6.81787 7.00342 5.81445H7.02539C7.02539 5.81445 7.05469 5.81445 7.06201 5.81445C7.07666 5.81445 7.12793 5.81445 7.12793 5.81445C7.12793 8.23145 6.2124 9.67432 4.66699 9.67432C3.75879 9.67432 3.05566 9.17627 2.81396 8.37793H0.931641C1.24658 10.1138 2.71875 11.2563 4.65234 11.2563ZM4.71826 5.89502C3.50244 5.89502 2.63818 5.03076 2.63818 3.82227C2.63818 2.64307 3.54639 1.74219 4.72559 1.74219C5.90479 1.74219 6.81299 2.65771 6.81299 3.85156C6.81299 5.03076 5.92676 5.89502 4.71826 5.89502Z" fill="black"/>
<path d="M12.0281 11.1538C12.7239 11.1538 13.2 10.6558 13.2 9.99658C13.2 9.33008 12.7239 8.83936 12.0281 8.83936C11.3396 8.83936 10.8562 9.33008 10.8562 9.99658C10.8562 10.6558 11.3396 11.1538 12.0281 11.1538ZM12.0281 5.66064C12.7239 5.66064 13.2 5.16992 13.2 4.51074C13.2 3.84424 12.7239 3.35352 12.0281 3.35352C11.3396 3.35352 10.8562 3.84424 10.8562 4.51074C10.8562 5.16992 11.3396 5.66064 12.0281 5.66064Z" fill="black"/>
<path d="M20.0558 11H21.8648V9.02979H23.2931V7.43311H21.8648V0.431152H19.1988C17.3312 3.24365 15.8443 5.59473 14.8922 7.34521V9.02979H20.0558V11ZM16.6427 7.36719C17.8731 5.19922 18.9718 3.46338 19.9825 1.96924H20.0851V7.47705H16.6427V7.36719Z" fill="black"/>
<path d="M27.3217 11H29.2113V0.431152H27.329L24.5678 2.36475V4.18115L27.1972 2.33545H27.3217V11Z" fill="black"/>
</svg>
