<svg width="25" height="26" viewBox="0 0 25 26" fill="none" xmlns="http://www.w3.org/2000/svg">
<path d="M22.6607 2.89636L22.7244 3.09592L23.4135 5.49908C23.5444 5.95531 23.3134 6.42958 22.8907 6.61538L22.7708 6.65867L9.36213 10.5025L23.311 10.5037C23.7856 10.5037 24.1778 10.8564 24.2399 11.314L24.2485 11.4412V22.0637C24.2485 23.8919 22.8213 25.3867 21.0204 25.495L20.811 25.5012H5.18739C3.35922 25.5012 1.86438 24.0741 1.75616 22.2731L1.74989 22.0637L1.74963 11.5738L1.09743 9.29737C0.593518 7.54003 1.55333 5.70972 3.2547 5.10928L3.45426 5.04553L18.4726 0.739091C20.23 0.235181 22.0603 1.19499 22.6607 2.89636ZM22.3724 12.3775H3.62489V22.0637C3.62489 22.8188 4.16048 23.4488 4.87249 23.5945L5.02763 23.6182L5.18739 23.6262H20.811C21.62 23.6262 22.2854 23.0114 22.3654 22.2235L22.3735 22.0637L22.3724 12.3775ZM5.84074 6.31178L3.97108 6.8479C3.19341 7.07089 2.72321 7.84534 2.86346 8.62478L2.89974 8.78057L3.33016 10.2816L3.69902 10.1755L5.84074 6.31178ZM11.7861 4.60697L8.38928 5.581L6.24756 9.44476L9.64442 8.47073L11.7861 4.60697ZM17.7327 2.9018L14.3359 3.87584L12.1942 7.7396L15.5898 6.76591L17.7327 2.9018ZM20.0417 2.60986L18.1408 6.03444L21.3514 5.11411L20.9221 3.61275C20.7881 3.1456 20.4552 2.78942 20.0417 2.60986Z" fill="black"/>
</svg>
