<svg width="18" height="12" viewBox="0 0 18 12" fill="none" xmlns="http://www.w3.org/2000/svg">
<path d="M2.66675 7.33368C3.21898 7.33375 3.66675 7.78144 3.66675 8.33368V10.3337C3.66654 10.8857 3.21885 11.3336 2.66675 11.3337H1.66675C1.11459 11.3337 0.66696 10.8858 0.666748 10.3337V8.33368C0.666748 7.78139 1.11446 7.33368 1.66675 7.33368H2.66675ZM7.33374 5.33368C7.88582 5.33392 8.33374 5.78154 8.33374 6.33368V10.3337C8.33353 10.8856 7.88569 11.3334 7.33374 11.3337H6.33374C5.78159 11.3337 5.33395 10.8858 5.33374 10.3337V6.33368C5.33374 5.78139 5.78146 5.33368 6.33374 5.33368H7.33374ZM11.9998 2.99969C12.552 2.99969 12.9996 3.44753 12.9998 3.99969V10.3337C12.9995 10.8858 12.5519 11.3337 11.9998 11.3337H10.9998C10.4477 11.3336 9.99997 10.8857 9.99976 10.3337V3.99969C9.9999 3.4476 10.4477 2.9998 10.9998 2.99969H11.9998ZM16.6667 0.666687C17.219 0.666753 17.6667 1.11444 17.6667 1.66669V10.3337C17.6665 10.8857 17.2188 11.3336 16.6667 11.3337H15.6667C15.1146 11.3337 14.667 10.8858 14.6667 10.3337V1.66669C14.6667 1.1144 15.1145 0.666687 15.6667 0.666687H16.6667Z" fill="black"/>
</svg>
