<svg width="17" height="12" viewBox="0 0 17 12" fill="none" xmlns="http://www.w3.org/2000/svg">
<path d="M2.24829 7.33362C2.771 7.33375 3.19458 7.78141 3.19458 8.33362V10.3336C3.19441 10.8857 2.7709 11.3335 2.24829 11.3336H1.30103C0.778503 11.3334 0.354903 10.8856 0.354736 10.3336V8.33362C0.354736 7.78148 0.7784 7.33385 1.30103 7.33362H2.24829ZM6.66626 5.33362C7.18887 5.33387 7.61255 5.78149 7.61255 6.33362V10.3336C7.61239 10.8856 7.18877 11.3334 6.66626 11.3336H5.71899C5.19636 11.3335 4.77286 10.8857 4.77271 10.3336V6.33362C4.77271 5.7814 5.19627 5.33372 5.71899 5.33362H6.66626ZM11.0833 2.99963C11.606 2.99963 12.0304 3.44749 12.0305 3.99963V10.3336C12.0303 10.8857 11.606 11.3336 11.0833 11.3336H10.137C9.61426 11.3336 9.19085 10.8857 9.19067 10.3336V3.99963C9.19083 3.44749 9.61425 2.99963 10.137 2.99963H11.0833ZM15.5012 0.666626C16.0239 0.666748 16.4475 1.11442 16.4475 1.66663V10.3336C16.4473 10.8857 16.0238 11.3335 15.5012 11.3336H14.554C14.0314 11.3334 13.6078 10.8856 13.6077 10.3336V1.66663C13.6077 1.11449 14.0313 0.666863 14.554 0.666626H15.5012Z" fill="black"/>
</svg>
