<svg width="26" height="26" viewBox="0 0 26 26" fill="none" xmlns="http://www.w3.org/2000/svg">
<path d="M22.3001 24.7C23.6256 24.7 24.7001 23.6255 24.7001 22.3V3.69998C24.7001 2.37444 23.6256 1.29998 22.3001 1.29998H3.7001C2.37456 1.29998 1.3001 2.37444 1.3001 3.69998V22.3C1.3001 23.6255 2.37456 24.7 3.7001 24.7H22.3001ZM22.3001 25.9H3.7001C1.71184 25.9 0.100098 24.2882 0.100098 22.3V3.69998C0.100098 1.71171 1.71184 0.0999756 3.7001 0.0999756H22.3001C24.2884 0.0999756 25.9001 1.71171 25.9001 3.69998V22.3C25.9001 24.2882 24.2884 25.9 22.3001 25.9Z" fill="black"/>
</svg>
