<svg width="24" height="21" viewBox="0 0 24 21" fill="none" xmlns="http://www.w3.org/2000/svg">
<path d="M19.1671 0.438525L14.4235 5.18213C14.1892 5.41645 14.1892 5.79634 14.4235 6.03065C14.6578 6.26497 15.0377 6.26497 15.272 6.03065L20.0156 1.28705C20.2499 1.05273 20.2499 0.672842 20.0156 0.438525C19.7813 0.204209 19.4014 0.204209 19.1671 0.438525ZM14.4871 0.438525L9.7435 5.18213C9.50918 5.41645 9.50918 5.79634 9.7435 6.03065C9.97782 6.26497 10.3577 6.26497 10.592 6.03065L15.3356 1.28705C15.5699 1.05273 15.5699 0.672842 15.3356 0.438525C15.1013 0.204209 14.7214 0.204209 14.4871 0.438525ZM9.7771 0.438525L5.0335 5.18213C4.79919 5.41645 4.79919 5.79634 5.0335 6.03065C5.26782 6.26497 5.64771 6.26497 5.88203 6.03065L10.6256 1.28705C10.8599 1.05273 10.8599 0.672842 10.6256 0.438525C10.3913 0.204209 10.0114 0.204209 9.7771 0.438525ZM5.1271 0.408525L0.383501 5.15213C0.149185 5.38645 0.149185 5.76634 0.383501 6.00065C0.617817 6.23497 0.99771 6.23497 1.23203 6.00065L5.97563 1.25705C6.20995 1.02273 6.20995 0.642842 5.97563 0.408525C5.74131 0.174209 5.36142 0.174209 5.1271 0.408525ZM22.6423 1.67257L18.9709 5.34397C18.7366 5.57828 18.7366 5.95817 18.9709 6.19249C19.2052 6.42681 19.5851 6.42681 19.8195 6.19249L23.4909 2.52109C23.7252 2.28678 23.7252 1.90688 23.4909 1.67257C23.2565 1.43825 22.8766 1.43825 22.6423 1.67257ZM10.1355 10.7627C9.93578 10.636 9.67486 10.7796 9.67486 11.016V19.2462C9.67486 19.4825 9.93586 19.6262 10.1355 19.4996L16.629 15.3845C16.8149 15.2667 16.8149 14.9956 16.629 14.8778L10.1355 10.7627H10.1355ZM17.2713 13.8642C18.2008 14.4532 18.2008 15.8092 17.2713 16.3982L10.7779 20.5132C9.77936 21.1463 8.47486 20.4285 8.47486 19.2463V11.0161C8.47486 9.83365 9.77924 9.11608 10.7779 9.7491L17.2713 13.8642Z" fill="black"/>
</svg>
