<svg width="19" height="21" viewBox="0 0 19 21" fill="none" xmlns="http://www.w3.org/2000/svg">
<path d="M10.677 1.29709C11.5387 0.806389 12.5595 0.67661 13.5166 0.936101C14.4737 1.19559 15.2892 1.82327 15.785 2.68203C16.2808 3.5408 16.4167 4.56088 16.1629 5.51948C15.9091 6.47808 15.2863 7.29731 14.4305 7.79823L13.6647 8.23909C14.5017 8.21013 15.3243 8.46201 16.0016 8.95463C16.679 9.44725 17.172 10.1523 17.4023 10.9575C17.6326 11.7628 17.5869 12.6219 17.2724 13.3981C16.958 14.1744 16.3929 14.8231 15.6672 15.2411L8.40229 19.4355C7.54046 19.9332 6.5162 20.0682 5.55483 19.8108C4.59346 19.5534 3.77374 18.9246 3.27599 18.0627C2.77824 17.2009 2.64324 16.1766 2.90069 15.2153C3.15813 14.2539 3.78694 13.4342 4.64877 12.9364L5.41354 12.4935C4.57741 12.5208 3.7561 12.2681 3.08003 11.7753C2.40397 11.2826 1.91189 10.5781 1.68194 9.77372C1.45198 8.96936 1.49734 8.11123 1.81079 7.33559C2.12425 6.55995 2.68784 5.91126 3.41208 5.49251L10.677 1.29709Z" stroke="black" stroke-width="1.5" stroke-linejoin="round"/>
</svg>
