<svg width="18" height="21" viewBox="0 0 18 21" fill="none" xmlns="http://www.w3.org/2000/svg">
<path d="M10.0626 1.2601C10.9146 0.774906 11.924 0.646585 12.8703 0.90316C13.8166 1.15974 14.623 1.78036 15.1132 2.62948C15.6035 3.4786 15.7378 4.48722 15.4868 5.43505C15.2359 6.38287 14.6201 7.19289 13.7739 7.68819L13.0167 8.12409C13.8443 8.09546 14.6577 8.3445 15.3274 8.83159C15.9971 9.31868 16.4846 10.0158 16.7123 10.812C16.94 11.6082 16.8948 12.4576 16.5839 13.2252C16.273 13.9927 15.7143 14.6342 14.9967 15.0474L7.81343 19.1947C6.96129 19.6869 5.94854 19.8203 4.99797 19.5658C4.04741 19.3112 3.23689 18.6895 2.74474 17.8373C2.25258 16.9852 2.1191 15.9725 2.37365 15.0219C2.6282 14.0713 3.24994 13.2608 4.10209 12.7687L4.85827 12.3307C4.03153 12.3577 3.21945 12.1078 2.55098 11.6206C1.88251 11.1334 1.39596 10.4368 1.16859 9.64148C0.941224 8.84616 0.986066 7.99767 1.296 7.23074C1.60593 6.46382 2.16319 5.82241 2.8793 5.40837L10.0626 1.2601Z" stroke="black" stroke-width="1.5" stroke-linejoin="round"/>
</svg>
