<svg width="26" height="25" viewBox="0 0 26 25" fill="none" xmlns="http://www.w3.org/2000/svg">
<path d="M3.42216 6.08816L2.48467 6.09287C2.48726 6.60696 2.90336 7.02306 3.41745 7.02564L3.42216 6.08816ZM6.59939 7.04163C7.11715 7.04424 7.53899 6.62662 7.54159 6.10886C7.54419 5.59109 7.12657 5.16926 6.60881 5.16666L6.59939 7.04163ZM4.34366 2.90151C4.34106 2.38374 3.91922 1.96613 3.40146 1.96873C2.8837 1.97133 2.46609 2.39317 2.46869 2.91093L4.34366 2.90151ZM2.78322 10.9811C2.85354 10.4681 2.49469 9.99534 1.98171 9.92503C1.46875 9.85472 0.995899 10.2135 0.925587 10.7265L2.78322 10.9811ZM21.5777 3.92222C16.8025 -0.853018 9.08587 -0.90138 4.34222 3.84227L5.66805 5.16809C9.66694 1.16921 16.1963 1.19244 20.252 5.24804L21.5777 3.92222ZM4.42217 21.0778C9.19741 25.853 16.9141 25.9014 21.6577 21.1578L20.3318 19.8319C16.333 23.8308 9.8036 23.8076 5.748 19.752L4.42217 21.0778ZM21.6577 21.1578C26.4013 16.4141 26.353 8.69746 21.5777 3.92222L20.252 5.24804C24.3076 9.30364 24.3307 15.833 20.3318 19.8319L21.6577 21.1578ZM4.34222 3.84227L2.75925 5.42524L4.08507 6.75107L5.66805 5.16809L4.34222 3.84227ZM3.41745 7.02564L6.59939 7.04163L6.60881 5.16666L3.42687 5.15067L3.41745 7.02564ZM4.35965 6.08344L4.34366 2.90151L2.46869 2.91093L2.48467 6.09287L4.35965 6.08344ZM0.925587 10.7265C0.423799 14.3874 1.59236 18.248 4.42217 21.0778L5.748 19.752C3.34727 17.3513 2.35825 14.0815 2.78322 10.9811L0.925587 10.7265Z" fill="#1C274C"/>
</svg>
