<svg width="16" height="12" viewBox="0 0 16 12" fill="none" xmlns="http://www.w3.org/2000/svg">
<path d="M6.12086 8.73112C7.39639 7.6524 9.26429 7.65237 10.5398 8.73112C10.604 8.78915 10.6416 8.87117 10.6433 8.95768C10.6451 9.0441 10.6112 9.12756 10.5496 9.18815L8.55152 11.2038C8.49299 11.2629 8.41304 11.2965 8.32984 11.2965C8.24671 11.2964 8.16661 11.2629 8.10816 11.2038L6.11109 9.18815C6.0494 9.12752 6.01554 9.04415 6.01734 8.95768C6.01917 8.87117 6.05664 8.7891 6.12086 8.73112ZM3.45484 6.04264C6.20304 3.48626 10.4596 3.48626 13.2078 6.04264C13.2696 6.10256 13.3055 6.18504 13.3064 6.27116C13.3072 6.35725 13.2733 6.44054 13.2127 6.50162L12.0574 7.66764C11.9385 7.78666 11.7468 7.78922 11.6248 7.6735C10.7223 6.85629 9.54733 6.40389 8.32984 6.40397C7.11336 6.40458 5.94057 6.85699 5.03883 7.6735C4.91676 7.78948 4.72422 7.78677 4.60523 7.66764L3.45093 6.50162C3.3901 6.44061 3.35648 6.3573 3.35718 6.27116C3.358 6.18508 3.39306 6.10255 3.45484 6.04264ZM0.789802 3.36002C5.00482 -0.679289 11.6548 -0.679216 15.8699 3.36002C15.9308 3.41995 15.965 3.50212 15.9656 3.58756C15.9661 3.673 15.9329 3.75539 15.8728 3.81608L14.7166 4.98307C14.5975 5.10276 14.4039 5.10477 14.283 4.98698C12.677 3.46018 10.5457 2.60817 8.32984 2.60807C6.11389 2.60818 3.98276 3.46018 2.37672 4.98698C2.25584 5.10484 2.06209 5.10291 1.94312 4.98307L0.786872 3.81608C0.726762 3.75534 0.693537 3.67303 0.694099 3.58756C0.694743 3.50209 0.728816 3.41992 0.789802 3.36002Z" fill="black"/>
</svg>
