<svg width="16" height="12" viewBox="0 0 16 12" fill="none" xmlns="http://www.w3.org/2000/svg">
<path d="M5.70337 8.73114C6.91087 7.65226 8.67946 7.65226 9.88696 8.73114C9.94771 8.78917 9.98295 8.8712 9.98462 8.9577C9.98624 9.04415 9.95417 9.12761 9.89575 9.18817L8.00513 11.2038C7.94971 11.263 7.87399 11.2966 7.79517 11.2966C7.71637 11.2965 7.6406 11.263 7.58521 11.2038L5.69458 9.18817C5.63622 9.12758 5.60405 9.04412 5.60571 8.9577C5.60744 8.87127 5.64267 8.78912 5.70337 8.73114ZM3.17993 6.04169C5.78143 3.48535 9.81081 3.48545 12.4124 6.04169C12.471 6.10155 12.5042 6.18407 12.5051 6.2702C12.506 6.35647 12.4738 6.43948 12.4163 6.50067L11.3235 7.66766C11.2108 7.78673 11.0289 7.78947 10.9133 7.67352C10.059 6.85631 8.94768 6.40392 7.79517 6.40399C6.64343 6.40451 5.53268 6.85687 4.67896 7.67352C4.5634 7.78929 4.38137 7.78672 4.2688 7.66766L3.17603 6.50067C3.11854 6.4396 3.08639 6.35634 3.08716 6.2702C3.08804 6.18409 3.12129 6.10153 3.17993 6.04169ZM0.657471 3.36005C4.64761 -0.67932 10.9427 -0.679359 14.9329 3.36005C14.9906 3.42001 15.0232 3.50208 15.0237 3.58759C15.0242 3.67317 14.9919 3.75538 14.9348 3.8161L13.8411 4.98309C13.7283 5.10281 13.5454 5.1039 13.4309 4.98602C11.9107 3.45928 9.89277 2.60819 7.79517 2.60809C5.69747 2.60816 3.67979 3.45927 2.15942 4.98602C2.04503 5.10406 1.86195 5.10295 1.74927 4.98309L0.654541 3.8161C0.597597 3.75535 0.566118 3.67308 0.56665 3.58759C0.567218 3.50206 0.599702 3.41998 0.657471 3.36005Z" fill="black"/>
</svg>
