<svg width="24" height="19" viewBox="0 0 24 19" fill="none" xmlns="http://www.w3.org/2000/svg">
<path fill-rule="evenodd" clip-rule="evenodd" d="M9.58613 12.7788V5.66384C11.9768 6.85237 13.8283 8.00051 16.0181 9.23836C14.212 10.2966 11.9768 11.4841 9.58613 12.7788ZM22.9092 2.12523C22.4968 1.5512 21.794 1.10436 21.0457 0.956429C18.8463 0.515152 5.12518 0.513896 2.92698 0.956429C2.32693 1.07528 1.7926 1.36255 1.3336 1.80889C-0.600435 3.70548 0.00559941 13.8763 0.471777 15.5238C0.667809 16.2369 0.921228 16.7512 1.24038 17.0888C1.65157 17.5351 2.21456 17.8424 2.86123 17.9803C4.67214 18.376 14.0016 18.5973 21.0074 18.0397C21.6529 17.9208 22.2243 17.6036 22.6749 17.1383C24.4631 15.2493 24.3412 4.50735 22.9092 2.12523Z" fill="#FF0000"/>
</svg>
